<?xml version="1.0"?>
<svg width="250" height="50" xmlns="http://www.w3.org/2000/svg" xmlns:svg="http://www.w3.org/2000/svg">
 <!-- Created with SVG-edit - https://github.com/SVG-Edit/svgedit-->
 <title>sound</title>
 <g class="layer">
  <title>Layer 1</title>
  <g id="svg_16">
   <rect fill="#ff8b2d" height="15.95" id="svg_17" stroke="#7f7f7f" width="5.37" x="9.14" y="17.03"/>
   <rect fill="#ff8b2d" height="22.78" id="svg_18" stroke="#7f7f7f" width="5.37" x="18.98" y="13.61"/>
   <rect fill="#ff8b2d" height="29.62" id="svg_19" stroke="#7f7f7f" width="5.37" x="28.82" y="10.19"/>
   <rect fill="#ff8b2d" height="36" id="svg_20" stroke="#7f7f7f" width="5.37" x="38.66" y="7"/>
   <rect fill="#ff8b2d" height="35.09" id="svg_21" stroke="#7f7f7f" width="5.37" x="78.03" y="7.46"/>
   <rect fill="#ff8b2d" height="30.53" id="svg_22" stroke="#7f7f7f" width="5.37" x="68.19" y="9.73"/>
   <rect fill="#ff8b2d" height="25.97" id="svg_23" stroke="#7f7f7f" width="5.37" x="58.35" y="12.01"/>
   <rect fill="#ff8b2d" height="19.14" id="svg_24" stroke="#7f7f7f" width="5.37" x="48.5" y="15.43"/>
   <rect fill="#ff8b2d" height="16.41" id="svg_25" stroke="#7f7f7f" width="5.37" x="107.55" y="16.8"/>
   <rect fill="#ff8b2d" height="23.24" id="svg_26" stroke="#7f7f7f" width="5.37" x="97.71" y="13.38"/>
   <rect fill="#ff8b2d" height="30.53" id="svg_27" stroke="#7f7f7f" width="5.37" x="87.87" y="9.73"/>
   <rect fill="#ff8b2d" height="31.9" id="svg_28" stroke="#7f7f7f" width="5.37" x="117.39" y="9.05"/>
   <rect fill="#ff8b2d" height="26.89" id="svg_29" stroke="#7f7f7f" width="5.37" x="127.23" y="11.56"/>
   <rect fill="#ff8b2d" height="20.96" id="svg_30" stroke="#7f7f7f" width="5.37" x="137.07" y="14.52"/>
   <rect fill="#ff8b2d" height="36.96" id="svg_31" stroke="#7f7f7f" width="5.37" x="176.44" y="6.52"/>
   <rect fill="#ff8b2d" height="31.96" id="svg_32" stroke="#7f7f7f" width="5.37" x="166.6" y="9.02"/>
   <rect fill="#ff8b2d" height="29.96" id="svg_33" stroke="#7f7f7f" width="5.37" x="156.76" y="10.02"/>
   <rect fill="#ff8b2d" height="20.96" id="svg_34" stroke="#7f7f7f" width="5.37" x="146.92" y="14.52"/>
   <rect fill="#ff8b2d" height="20.96" id="svg_35" stroke="#7f7f7f" width="5.37" x="205.96" y="14.52"/>
   <rect fill="#ff8b2d" height="24.96" id="svg_36" stroke="#7f7f7f" width="5.37" x="196.12" y="12.52"/>
   <rect fill="#ff8b2d" height="28.96" id="svg_37" stroke="#7f7f7f" width="5.37" x="186.28" y="10.52"/>
   <rect fill="#ff8b2d" height="33.96" id="svg_38" stroke="#7f7f7f" width="5.37" x="215.8" y="8.02"/>
   <rect fill="#ff8b2d" height="26.96" id="svg_39" stroke="#7f7f7f" width="5.37" x="225.64" y="11.52"/>
   <rect fill="#ff8b2d" height="20.96" id="svg_40" stroke="#7f7f7f" width="5.37" x="235.49" y="14.52"/>
  </g>
 </g>
</svg>